HIERARCHY
ROOT Hips
{
	OFFSET 0.000000 0.000000 0.000000
	CHANNELS 6 Xposition Yposition Zposition Xrotation Yrotation Zrotation
	JOINT LeftUpLeg_virtual
	{
		OFFSET 0.000000 0.000000 0.000000
		CHANNELS 3 Xrotation Yrotation Zrotation
		JOINT LeftUpLeg
		{
			OFFSET 11.394100 -6.187798 -0.413800
			CHANNELS 3 Xrotation Yrotation Zrotation
			JOINT LeftLeg
			{
				OFFSET 0.430247 -32.302673 3.732800
				CHANNELS 3 Xrotation Yrotation Zrotation
				JOINT LeftFoot
				{
					OFFSET -0.430247 -48.264931 -6.423300
					CHANNELS 3 Xrotation Yrotation Zrotation
					JOINT LeftToeBase
					{
						OFFSET 4.230900 -16.068199 23.438400
						CHANNELS 3 Xrotation Yrotation Zrotation
						JOINT LeftToe_End
						{
							OFFSET 4.510700 0.695400 19.974600
							CHANNELS 3 Xrotation Yrotation Zrotation
							End Site
							{
								OFFSET 0 0 0
							}
						}
					}
				}
			}
		}
	}
	JOINT RightUpLeg_virtual
	{
		OFFSET 0.000000 0.000000 0.000000
		CHANNELS 3 Xrotation Yrotation Zrotation
		JOINT RightUpLeg
		{
			OFFSET -11.333700 -6.187798 -0.413800
			CHANNELS 3 Xrotation Yrotation Zrotation
			JOINT RightLeg
			{
				OFFSET -0.430392 -32.302628 3.733000
				CHANNELS 3 Xrotation Yrotation Zrotation
				JOINT RightFoot
				{
					OFFSET 0.430392 -48.264973 -6.423500
					CHANNELS 3 Xrotation Yrotation Zrotation
					JOINT RightToeBase
					{
						OFFSET -4.230900 -16.068199 23.438400
						CHANNELS 3 Xrotation Yrotation Zrotation
						JOINT RightToe_End
						{
							OFFSET -4.510700 0.695400 19.974600
							CHANNELS 3 Xrotation Yrotation Zrotation
							End Site
							{
								OFFSET 0 0 0
							}
						}
					}
				}
			}
		}
	}
	JOINT Spine_virtual
	{
		OFFSET 0.000000 0.000000 0.000000
		CHANNELS 3 Xrotation Yrotation Zrotation
		JOINT Spine
		{
			OFFSET -0.002400 12.777504 0.315300
			CHANNELS 3 Xrotation Yrotation Zrotation
			JOINT Spine1
			{
				OFFSET -0.002067 5.816869 0.032633
				CHANNELS 3 Xrotation Yrotation Zrotation
				JOINT Spine1_split
				{
					OFFSET -0.002067 5.816869 0.032633
					CHANNELS 3 Xrotation Yrotation Zrotation
					JOINT Spine2
					{
						OFFSET -0.002067 5.816869 0.032633
						CHANNELS 3 Xrotation Yrotation Zrotation
						JOINT Neck_virtual
						{
							OFFSET 0.000000 0.000000 0.000000
							CHANNELS 3 Xrotation Yrotation Zrotation
							JOINT Neck
							{
								OFFSET -0.003700 21.199493 -0.826900
								CHANNELS 3 Xrotation Yrotation Zrotation
								JOINT Head
								{
									OFFSET 0.000000 20.442200 4.834800
									CHANNELS 3 Xrotation Yrotation Zrotation
									JOINT HeadTop_End
									{
										OFFSET 0.000000 34.668396 4.968400
										CHANNELS 3 Xrotation Yrotation Zrotation
										End Site
										{
											OFFSET 0 0 0
										}
									}
								}
							}
						}
						JOINT LeftShoulder_virtual
						{
							OFFSET 0.000000 0.000000 0.000000
							CHANNELS 3 Xrotation Yrotation Zrotation
							JOINT LeftShoulder
							{
								OFFSET 3.288150 8.794197 -1.372250
								CHANNELS 3 Xrotation Yrotation Zrotation
								JOINT LeftShoulder_split
								{
									OFFSET 3.288150 8.794197 -1.372250
									CHANNELS 3 Xrotation Yrotation Zrotation
									JOINT LeftArm
									{
										OFFSET 11.953299 -2.279007 -0.146200
										CHANNELS 3 Xrotation Yrotation Zrotation
										JOINT LeftForeArm
										{
											OFFSET 18.448900 0.000000 0.000000
											CHANNELS 3 Xrotation Yrotation Zrotation
											JOINT LeftHand
											{
												OFFSET 29.527798 0.000000 0.000000
												CHANNELS 3 Xrotation Yrotation Zrotation
												End Site
												{
													OFFSET 0 0 0
												}
											}
										}
									}
								}
							}
						}
						JOINT RightShoulder_virtual
						{
							OFFSET 0.000000 0.000000 0.000000
							CHANNELS 3 Xrotation Yrotation Zrotation
							JOINT RightShoulder
							{
								OFFSET -3.249400 8.794197 -1.372250
								CHANNELS 3 Xrotation Yrotation Zrotation
								JOINT RightShoulder_split
								{
									OFFSET -3.249400 8.794197 -1.372250
									CHANNELS 3 Xrotation Yrotation Zrotation
									JOINT RightArm
									{
										OFFSET -11.953299 -2.279007 -0.146200
										CHANNELS 3 Xrotation Yrotation Zrotation
										JOINT RightForeArm
										{
											OFFSET -18.448900 0.000000 0.000000
											CHANNELS 3 Xrotation Yrotation Zrotation
											JOINT RightHand
											{
												OFFSET -29.527802 0.000000 0.000000
												CHANNELS 3 Xrotation Yrotation Zrotation
												End Site
												{
													OFFSET 0 0 0
												}
											}
										}
									}
								}
							}
						}
					}
				}
			}
		}
	}
}
MOTION
Frames: 8
Frame Time: 0.03333333
4.503881 96.724716 -9.837395 0.000000 0.000000 0.000000 18.930651 23.974893 3.450792 -41.697564 16.258726 13.571463 31.317903 -6.003061 -0.167068 16.687194 33.075188 -27.295441 1.679776 -0.374455 0.105870 0.000000 0.000000 0.000000 19.272581 23.082431 4.025466 -62.131424 -12.683841 -12.642129 34.110781 8.706435 -6.628650 0.893454 -13.015678 9.487420 11.614025 4.968769 -13.304201 0.000000 0.000000 0.000000 17.972140 24.356296 5.221823 13.257600 -3.770355 2.123862 7.183153 0.830472 -2.383446 0.048038 -0.450392 0.129925 0.000000 0.000000 0.000000 7.980022 3.589348 -3.461177 -6.672258 3.461061 2.130805 -24.140865 9.067920 -14.122934 0.000000 0.000000 0.000000 8.150077 1.921724 -3.044342 3.489538 -0.953872 -11.260822 5.128004 -4.503104 -2.669134 -32.896080 4.509949 -49.682000 6.241269 -41.827932 -1.654208 0.000000 0.000000 0.000000 8.814372 2.418203 -2.979897 -0.043017 17.094696 4.110593 7.214531 4.155417 2.859517 -17.209691 -18.912584 58.118298 -16.181107 42.045944 7.982838 0.000000 0.000000 0.000000 
4.506569 97.869598 -6.952858 0.000000 0.000000 0.000000 18.792347 23.083821 3.409229 -42.238655 15.209907 12.851424 29.385496 -4.482531 0.028386 16.945798 33.498543 -26.497908 2.185947 -0.488409 0.844392 0.000000 0.000000 0.000000 19.938125 21.950560 3.976437 -59.978248 -12.508143 -11.881987 33.346794 8.678536 -6.818216 1.492581 -12.678452 10.076234 10.759342 5.205698 -12.879484 0.000000 0.000000 0.000000 19.287230 24.757880 4.326424 12.589603 -3.222907 2.502443 7.161149 1.093814 -2.177810 0.071919 -0.258130 0.138745 0.000000 0.000000 0.000000 7.952011 3.806676 -3.366837 -6.471479 3.017054 1.772256 -23.922411 8.396281 -13.689275 0.000000 0.000000 0.000000 8.098175 2.154657 -3.046438 3.447624 -0.441993 -11.141161 4.334537 -2.553445 -1.422175 -31.328305 6.050983 -49.065603 5.834749 -39.714323 -1.873622 0.000000 0.000000 0.000000 9.114671 2.707043 -2.939967 0.197348 16.979056 4.146426 5.241770 3.444116 2.097098 -17.726788 -21.690599 57.684793 -16.517916 41.451172 8.270341 0.000000 0.000000 0.000000 
4.619662 99.325020 -3.155365 0.000000 0.000000 0.000000 18.365836 22.882954 3.562620 -42.324374 14.444342 11.193896 26.151640 -3.106463 0.623829 16.411548 33.556296 -25.112169 2.486055 -0.834581 2.024446 0.000000 0.000000 0.000000 19.968710 21.402452 3.949013 -55.924373 -12.747197 -10.932838 32.551449 8.407088 -7.015424 0.187020 -12.656016 9.977682 8.232032 5.822705 -11.437151 0.000000 0.000000 0.000000 20.025823 25.219099 3.576711 12.101093 -2.015850 3.135720 7.273976 1.678443 -1.700070 0.013894 -0.185095 0.119350 0.000000 0.000000 0.000000 8.125162 4.338070 -2.997746 -6.837346 2.273936 1.158843 -23.507626 5.699468 -13.517967 0.000000 0.000000 0.000000 8.095801 2.717817 -2.787529 3.376624 0.183157 -11.319479 3.961244 -1.196296 -0.007330 -28.472704 7.944257 -48.256113 5.169615 -38.294275 -1.827690 0.000000 0.000000 0.000000 9.495269 3.304463 -2.598130 0.472822 16.971465 4.135335 3.330294 2.647346 1.435110 -19.836264 -23.632530 54.997790 -18.008262 40.832636 9.561664 0.000000 0.000000 0.000000 
5.042859 100.369995 0.921787 0.000000 0.000000 0.000000 17.534069 23.533564 3.837198 -42.619120 14.168865 9.165817 23.656073 -2.186737 1.464083 16.045812 32.784942 -23.748494 1.814856 -1.371908 3.454032 0.000000 0.000000 0.000000 19.338064 21.349276 4.006892 -50.659762 -13.448552 -10.030930 32.401980 7.858811 -7.192444 -3.347295 -13.198424 8.889263 5.161342 6.604865 -9.504201 0.000000 0.000000 0.000000 19.605821 25.825251 3.164138 11.954875 -0.377794 3.784013 7.476522 2.465830 -1.065407 -0.028447 -0.253065 0.107998 0.000000 0.000000 0.000000 8.370809 5.078283 -2.390530 -7.642512 1.331409 0.346897 -22.743326 0.895082 -13.406835 0.000000 0.000000 0.000000 8.058398 3.499456 -2.322973 3.389612 0.854788 -11.596239 4.212156 -0.800616 1.152454 -25.086438 9.462662 -47.967503 4.411495 -37.605778 -1.468803 0.000000 0.000000 0.000000 9.867260 4.111187 -2.043415 0.674777 17.139462 3.977634 1.489642 1.937619 0.851481 -23.346447 -23.665641 50.812755 -20.081612 40.083737 11.324099 0.000000 0.000000 0.000000 
5.629836 100.616280 5.077015 0.000000 0.000000 0.000000 15.985853 24.640194 4.316202 -43.903664 14.592914 7.386503 23.572907 -1.622338 2.309984 15.941323 31.245916 -22.119822 0.255332 -1.991130 4.933283 0.000000 0.000000 0.000000 18.254608 21.706628 4.157639 -45.072931 -14.653659 -9.403862 33.739693 7.197314 -7.298674 -8.973049 -14.073439 7.022403 3.348223 7.365702 -7.958062 0.000000 0.000000 0.000000 18.116283 26.906907 3.064377 12.143649 1.388511 4.197958 7.674134 3.316031 -0.381690 -0.069556 -0.253341 0.065395 0.000000 0.000000 0.000000 8.522100 5.862371 -1.616724 -8.614616 0.286534 -0.562926 -21.514020 -5.994329 -13.171811 0.000000 0.000000 0.000000 7.886778 4.329078 -1.750361 3.512797 1.640695 -11.813326 4.211766 -1.061852 2.103573 -21.410655 10.380130 -48.446477 3.596306 -37.489822 -0.841899 0.000000 0.000000 0.000000 10.048317 4.981994 -1.382041 0.704682 17.514772 3.544166 0.773628 1.366582 0.383746 -27.849745 -21.193375 46.212695 -22.148468 39.337740 12.994711 0.000000 0.000000 0.000000 
6.367400 99.750534 8.793648 0.000000 0.000000 0.000000 13.902597 25.427427 4.897870 -46.204334 15.660615 6.385724 26.257709 -1.203482 3.050530 15.458205 29.433136 -19.719304 -0.929249 -2.590057 6.018070 0.000000 0.000000 0.000000 16.718911 22.587673 4.237588 -39.967907 -16.485049 -9.137591 36.798010 6.788800 -7.305808 -15.748809 -14.918176 5.178396 3.384460 8.121006 -7.658862 0.000000 0.000000 0.000000 15.795637 28.136517 3.258157 12.491201 2.994905 4.192319 7.729098 4.055880 0.257248 0.016983 -0.221801 -0.012059 0.000000 0.000000 0.000000 8.377815 6.522763 -0.784429 -9.453498 -0.685726 -1.494340 -19.775035 -14.420353 -12.391934 0.000000 0.000000 0.000000 7.511060 5.057344 -1.163530 3.737428 2.477059 -11.661059 3.887861 -1.798591 2.839169 -17.458407 10.666493 -49.444340 2.699763 -38.259496 -0.066903 0.000000 0.000000 0.000000 9.953313 5.765876 -0.726875 0.539798 18.035331 2.680374 1.002992 1.103075 -0.033588 -32.365715 -16.023093 42.589709 -23.598123 38.793391 14.056432 0.000000 0.000000 0.000000 
7.010072 98.157417 12.218880 0.000000 0.000000 0.000000 11.693393 25.751248 5.325566 -48.503919 16.975790 5.955982 30.395107 -0.790000 3.678129 13.593725 27.886117 -16.297313 -1.057129 -3.100696 6.564743 0.000000 0.000000 0.000000 15.088445 23.811113 4.190094 -35.405242 -18.870197 -9.034190 40.608145 6.857439 -7.316273 -22.370439 -15.700286 4.549456 4.044258 8.838920 -9.082706 0.000000 0.000000 0.000000 13.084227 29.156155 3.460158 12.721024 4.243376 3.776499 7.562683 4.567542 0.777149 0.174394 -0.165155 -0.089143 0.000000 0.000000 0.000000 7.853555 6.969499 0.011098 -9.768397 -1.476431 -2.358295 -17.504168 -23.344152 -10.751605 0.000000 0.000000 0.000000 6.904975 5.580161 -0.679179 4.047164 3.386500 -11.051105 3.674784 -2.874303 3.241668 -13.118549 10.647251 -50.392094 1.577522 -39.891054 0.583742 0.000000 0.000000 0.000000 9.553814 6.343071 -0.186683 0.241602 18.422519 1.302740 1.435150 0.733155 -0.078309 -36.253001 -8.879082 40.425315 -24.181178 38.770893 14.292319 0.000000 0.000000 0.000000 
7.606764 96.466446 15.284868 0.000000 0.000000 0.000000 9.905428 25.822889 5.278983 -49.713781 18.111107 6.029899 34.221830 -0.897799 4.212229 10.619432 26.389008 -12.738523 -0.684068 -3.508157 6.957372 0.000000 0.000000 0.000000 13.583567 25.228641 3.850039 -31.020209 -21.452769 -8.672418 43.853117 7.403304 -7.435405 -27.505915 -16.580602 5.569764 4.059590 9.419355 -11.918837 0.000000 0.000000 0.000000 10.621889 29.899331 3.410395 12.509541 5.000776 3.099923 7.159549 4.773916 1.113953 0.204071 -0.070242 -0.061866 0.000000 0.000000 0.000000 6.964401 7.111783 0.649060 -9.335191 -1.954645 -3.161648 -14.987436 -31.618482 -8.150653 0.000000 0.000000 0.000000 6.058598 5.825793 -0.373585 4.352815 4.292929 -10.001647 3.473308 -3.866273 3.176531 -8.209321 11.005172 -50.381740 0.194713 -42.553520 0.944392 0.000000 0.000000 0.000000 8.830314 6.636277 0.192806 -0.129373 18.432317 -0.523540 2.492811 0.513427 0.373475 -39.038213 -1.231352 39.703647 -23.887724 39.672136 13.753345 0.000000 0.000000 0.000000 
